<svg version="1.2" xmlns="http://www.w3.org/2000/svg" viewBox="0 0 128 128" width="128" height="128">
	<title>sOS</title>
	<defs>
		<clipPath clipPathUnits="userSpaceOnUse" id="cp1">
			<path d="m41.21 26.02l9.8 0.1v4.03l34.86-0.25 0.13-3.9h7l6 6v63l-6 6h-63l-6-6-0.22-52.53c9.67-8.94 11.4-10.81 17.43-16.45z"/>
		</clipPath>
		<clipPath clipPathUnits="userSpaceOnUse" id="cp2">
			<path d="m35.01 101c0 0 0.15-29.97-0.01-30-0.19-0.03 5-5 5-5h44l5 5v30z"/>
		</clipPath>
		<clipPath clipPathUnits="userSpaceOnUse" id="cp3">
			<path d="m36 100v-8h52v8z"/>
		</clipPath>
		<clipPath clipPathUnits="userSpaceOnUse" id="cp4">
			<path d="m86 30v23c0 1.66-1.42 3-3.18 3h-28.64c-1.76 0-3.18-1.34-3.18-3v-23z"/>
		</clipPath>
		<clipPath clipPathUnits="userSpaceOnUse" id="cp5">
			<path d="m59.44 27.19l18.82-0.19 2.74 2.71-0.01 15.04-4.61 4.05-15.99-0.1-4.39-4.27 0.42-14.72z"/>
		</clipPath>
	</defs>
	<style>
		.s0 { fill: #b778c2;stroke: #062825;paint-order:stroke fill markers;stroke-linejoin: round;stroke-width: 6 } 
		.s1 { fill: #085751;stroke: #062825;stroke-linejoin: round;stroke-width: 2 } 
		.s2 { fill: #0b5e59 } 
		.s3 { fill: #0e6660 } 
		.s4 { fill: #11736c } 
		.s5 { fill: #003631;stroke: #062825;stroke-linejoin: round;stroke-width: 2 } 
		.s6 { fill: #0a403b } 
		.s7 { fill: #043b34 } 
		.s8 { fill: #91c7bc;stroke: #062825;stroke-linejoin: round;stroke-width: 2 } 
		.s9 { fill: #5a3664 } 
		.s10 { fill: #b778c2 } 
		.s11 { fill: #c686d1 } 
		.s12 { fill: #ce93d9 } 
		.s13 { fill: #b778c2;stroke: #613a6b;stroke-linejoin: round;stroke-width: 2 } 
		.s14 { fill: none;stroke: #4b1687;paint-order:stroke fill markers;stroke-miterlimit:100;stroke-width: 5 } 
		.s15 { fill: #300f52 } 
	</style>
	<g id="Folder 1">
		<g id="disk">
			<path id="Shape 3 copy" class="s0" d="m59.4 27.2l18.9-0.2 2.7 2.7v15.1l-4.6 4-16-0.1-4.4-4.3 0.4-14.7z"/>
			<g clip-path="url(#cp1)">
				<path id="Shape 1" class="s1" d="m41.2 26l9.8 0.1v4.1l34.9-0.3 0.1-3.9h7l6 6v63l-6 6h-63l-6-6-0.2-52.5c9.7-9 11.4-10.8 17.4-16.5z"/>
				<path id="Shape 16" class="s2" d="m100 53v23h-76v-23z"/>
				<path id="Shape 17" class="s3" d="m100 24v29h-76v-29z"/>
				<path id="Shape 18" class="s4" d="m96.1 45.2h-7l-1.1-1.2v-15l1-1h2l6 6v10z"/>
				<path id="Shape 19" class="s4" d="m48 29.3l-0.1 12.6-1.8 2.1h-20.1l17.2-16h3.7z"/>
				<g clip-path="url(#cp2)">
					<path id="Shape 2" class="s5" d="m35 101c0 0 0.2-30 0-30-0.2 0 5-5 5-5h44l5 5v30z"/>
					<path id="Shape 15" class="s6" d="m89 65v12h-55v-12z"/>
					<path id="Shape 14" class="s7" d="m89 74v9h-54v-9z"/>
				</g>
				<path id="Shape 6" class="s8" d="m46 72h32l2 2v19c0 1.1-0.9 2-2 2h-32c-1.1 0-2-0.9-2-2v-19z"/>
				<path id="Shape 7" class="s9" d="m88 91v1h-52v-1z"/>
				<g clip-path="url(#cp3)">
					<path id="Shape 5" class="s10" d="m36 100v-8h52v8z"/>
					<path id="Shape 8" class="s11" d="m82 92v8h-36v-8z"/>
					<path id="Shape 9" class="s12" d="m79 92v8h-30v-8z"/>
					<g clip-path="url(#cp4)">
						<path id="Shape 4" class="s5" d="m86 30v23c0 1.7-1.4 3-3.2 3h-28.6c-1.8 0-3.2-1.3-3.2-3v-23z"/>
						<path id="Shape 12" class="s7" d="m86 36v10h-35v-10z"/>
						<path id="Shape 13" class="s6" d="m87 29v7h-37v-7z"/>
						<g clip-path="url(#cp5)">
							<path id="Shape 3" class="s13" d="m59.4 27.2l18.9-0.2 2.7 2.7v15.1l-4.6 4-16-0.1-4.4-4.3 0.4-14.7z"/>
							<path id="Shape 10" class="s11" d="m80 27v13h-23v-13z"/>
							<path id="Shape 11" class="s12" d="m65.1 29.1l11.9-0.1 2 2v4l-3.2 2.1h-11l-0.8-2.1v-5.1z"/>
						</g>
		</g>
		<g id="atom fields">
			<path id="Shape 20" class="s14" d="m62 120c-11.6 0-21-25-21-56 0-31 9.4-56 21-56 11.6 0 21 25 21 56 0 31-9.4 56-21 56z"/>
			<path id="Shape 20 copy" class="s14" d="m118.3 85.3c-4.5 8.8-32 3.6-61.4-11.7-29.4-15.3-49.5-34.8-44.9-43.6 4.6-8.9 32.1-3.6 61.5 11.7 29.4 15.3 49.4 34.8 44.8 43.6z"/>
			<path id="Shape 20 copy 2" class="s14" d="m115.1 36.4c4.5 8.9-15.7 28.2-45.2 43.4-29.4 15.1-56.9 20.2-61.5 11.3-4.5-8.8 15.6-28.2 45.1-43.3 29.5-15.2 57-20.2 61.6-11.4z"/>
		</g>
		<g id="atom orbs">
			<path id="Shape 21" class="s15" d="m99.5 38c-4.1 0-7.5-3.4-7.5-7.5 0-4.1 3.4-7.5 7.5-7.5 4.1 0 7.5 3.4 7.5 7.5 0 4.1-3.4 7.5-7.5 7.5z"/>
			<path id="Shape 22" class="s15" d="m16.5 51c-4.1 0-7.5-3.4-7.5-7.5 0-4.1 3.4-7.5 7.5-7.5 4.1 0 7.5 3.4 7.5 7.5 0 4.1-3.4 7.5-7.5 7.5z"/>
			<path id="Shape 23" class="s15" d="m77.5 111c-4.1 0-7.5-3.4-7.5-7.5 0-4.1 3.4-7.5 7.5-7.5 4.1 0 7.5 3.4 7.5 7.5 0 4.1-3.4 7.5-7.5 7.5z"/>
		</g>
	</g>
</svg>