<svg version="1.2" xmlns="http://www.w3.org/2000/svg" viewBox="0 0 12 12" width="12" height="12">
	<title>radio-border-disabled</title>
	<style>
		.s0 { fill: #230e33 } 
		.s1 { fill: #120816 } 
		.s2 { fill: #3d076d } 
		.s3 { fill: #571c9a } 
		.s4 { fill: #30134e } 
	</style>
	<path fill-rule="evenodd" class="s0" d="m8 0h-4v1h-2v1h-1v2h-1v4h1v2h1v-2h-1v-4h1v-2h2v-1h4v1h2v-1h-2z"/>
	<path fill-rule="evenodd" class="s1" d="m8 1h-4v1h-2v1 1h-1v4h1v1h1v-1h-1v-4h1v-1h1v-1h4v1h2v-1h-2z"/>
	<path fill-rule="evenodd" class="s2" d="m9 3h1v1h-1zm1 5v-4h1v4zm-2 2v-1h1v-1h1v2zm0 0v1h-4v-1zm-6 0v-1h2v1z"/>
	<path fill-rule="evenodd" class="s3" d="m11 2h-1v2h1v4h-1v2h-2v1h-4v-1h-2v1h2v1h4v-1h2v-1h1v-2h1v-4h-1z"/>
	<path fill-rule="evenodd" class="s4" d="m4 2h4v1h1v1h1v4h-1v1h-1v1h-4v-1h-1v-1h-1v-4h1v-1h1z"/>
</svg>